<?xml version="1.0" encoding="utf-8" standalone="no"?>
<!DOCTYPE svg PUBLIC "-//W3C//DTD SVG 1.1//EN"
  "http://www.w3.org/Graphics/SVG/1.1/DTD/svg11.dtd">
<!-- Created with matplotlib (http://matplotlib.org/) -->
<svg height="633pt" version="1.1" viewBox="0 0 921 633" width="921pt" xmlns="http://www.w3.org/2000/svg" xmlns:xlink="http://www.w3.org/1999/xlink">
 <defs>
  <style type="text/css">
*{stroke-linecap:butt;stroke-linejoin:round;}
  </style>
 </defs>
 <g id="figure_1">
  <g id="patch_1">
   <path d="
M0 633.6
L921.6 633.6
L921.6 0
L0 0
z
" style="fill:#ffffff;"/>
  </g>
  <g id="axes_1">
   <g id="patch_2">
    <path d="
M115.2 554.4
L829.44 554.4
L829.44 63.36
L115.2 63.36
z
" style="fill:#ffffff;"/>
   </g>
   <g id="matplotlib.axis_1">
    <g id="xtick_1">
     <g id="line2d_1">
      <defs>
       <path d="
M0 0
L0 0" id="m7b60e3c0a6" style="stroke:#262626;stroke-width:1.6;"/>
      </defs>
      <g>
       <use style="fill:#262626;stroke:#262626;stroke-width:1.6;" x="144.96" xlink:href="#m7b60e3c0a6" y="554.4"/>
      </g>
     </g>
     <g id="line2d_2">
      <g>
       <use style="fill:#262626;stroke:#262626;stroke-width:1.6;" x="144.96" xlink:href="#m7b60e3c0a6" y="63.36"/>
      </g>
     </g>
     <g id="text_1">
      <!-- 0.5 -->
      <defs>
       <path d="
M51.4219 22.4062
Q51.4219 17.2344 49.8594 12.9375
Q48.2969 8.64062 45.2188 5.53125
Q42.1406 2.4375 37.5781 0.71875
Q33.0156 -0.984375 27 -0.984375
Q21.5781 -0.984375 17.5469 0.28125
Q13.5312 1.5625 10.7344 3.78125
Q7.95312 6 6.3125 8.98438
Q4.6875 11.9688 4 15.375
L12.8906 16.4062
Q13.4219 14.4531 14.3906 12.625
Q15.375 10.7969 17.0625 9.34375
Q18.75 7.90625 21.2188 7.04688
Q23.6875 6.20312 27.2031 6.20312
Q30.6094 6.20312 33.3906 7.25
Q36.1875 8.29688 38.1562 10.3438
Q40.1406 12.4062 41.2031 15.375
Q42.2812 18.3594 42.2812 22.2188
Q42.2812 25.3906 41.25 28.0469
Q40.2344 30.7188 38.3281 32.6406
Q36.4219 34.5781 33.6562 35.6406
Q30.9062 36.7188 27.3906 36.7188
Q25.2031 36.7188 23.3438 36.3281
Q21.4844 35.9375 19.8906 35.25
Q18.3125 34.5781 17.0156 33.6719
Q15.7188 32.7656 14.5938 31.7812
L6 31.7812
L8.29688 68.7969
L47.4062 68.7969
L47.4062 61.3281
L16.3125 61.3281
L14.9844 39.5
Q17.3281 41.3125 20.8438 42.5938
Q24.3594 43.8906 29.2031 43.8906
Q34.3281 43.8906 38.4219 42.3281
Q42.5312 40.7656 45.4062 37.9062
Q48.2969 35.0625 49.8594 31.1094
Q51.4219 27.1562 51.4219 22.4062" id="LiberationSans-35"/>
       <path d="
M9.125 0
L9.125 10.6875
L18.6562 10.6875
L18.6562 0
z
" id="LiberationSans-2e"/>
       <path d="
M51.7031 34.4219
Q51.7031 24.5156 49.8281 17.75
Q47.9531 10.9844 44.7031 6.8125
Q41.4531 2.64062 37.0625 0.828125
Q32.6719 -0.984375 27.6875 -0.984375
Q22.6562 -0.984375 18.3125 0.828125
Q13.9688 2.64062 10.7656 6.78125
Q7.5625 10.9375 5.73438 17.7031
Q3.90625 24.4688 3.90625 34.4219
Q3.90625 44.8281 5.73438 51.6406
Q7.5625 58.4531 10.7812 62.5
Q14.0156 66.5469 18.4062 68.1875
Q22.7969 69.8281 27.9844 69.8281
Q32.9062 69.8281 37.2188 68.1875
Q41.5469 66.5469 44.7656 62.5
Q48 58.4531 49.8438 51.6406
Q51.7031 44.8281 51.7031 34.4219
M42.7812 34.4219
Q42.7812 42.625 41.7969 48.0625
Q40.8281 53.5156 38.9219 56.7656
Q37.0156 60.0156 34.25 61.3594
Q31.5 62.7031 27.9844 62.7031
Q24.2656 62.7031 21.4375 61.3281
Q18.6094 59.9688 16.6719 56.7188
Q14.75 53.4688 13.7656 48.0156
Q12.7969 42.5781 12.7969 34.4219
Q12.7969 26.5156 13.7969 21.0938
Q14.7969 15.6719 16.7188 12.375
Q18.6562 9.07812 21.4375 7.64062
Q24.2188 6.20312 27.7812 6.20312
Q31.25 6.20312 34.0312 7.64062
Q36.8125 9.07812 38.7344 12.375
Q40.6719 15.6719 41.7188 21.0938
Q42.7812 26.5156 42.7812 34.4219" id="LiberationSans-30"/>
      </defs>
      <g style="fill:#262626;" transform="translate(134.4875 577.195)scale(0.16 -0.16)">
       <use xlink:href="#LiberationSans-30"/>
       <use x="55.615234375" xlink:href="#LiberationSans-2e"/>
       <use x="83.3984375" xlink:href="#LiberationSans-35"/>
      </g>
     </g>
    </g>
    <g id="xtick_2">
     <g id="line2d_3">
      <g>
       <use style="fill:#262626;stroke:#262626;stroke-width:1.6;" x="308.64" xlink:href="#m7b60e3c0a6" y="554.4"/>
      </g>
     </g>
     <g id="line2d_4">
      <g>
       <use style="fill:#262626;stroke:#262626;stroke-width:1.6;" x="308.64" xlink:href="#m7b60e3c0a6" y="63.36"/>
      </g>
     </g>
     <g id="text_2">
      <!-- 1.0 -->
      <defs>
       <path d="
M7.625 0
L7.625 7.46875
L25.1406 7.46875
L25.1406 60.4062
L9.625 49.3125
L9.625 57.625
L25.875 68.7969
L33.9844 68.7969
L33.9844 7.46875
L50.7344 7.46875
L50.7344 0
z
" id="LiberationSans-31"/>
      </defs>
      <g style="fill:#262626;" transform="translate(298.4425 577.195)scale(0.16 -0.16)">
       <use xlink:href="#LiberationSans-31"/>
       <use x="55.615234375" xlink:href="#LiberationSans-2e"/>
       <use x="83.3984375" xlink:href="#LiberationSans-30"/>
      </g>
     </g>
    </g>
    <g id="xtick_3">
     <g id="line2d_5">
      <g>
       <use style="fill:#262626;stroke:#262626;stroke-width:1.6;" x="472.32" xlink:href="#m7b60e3c0a6" y="554.4"/>
      </g>
     </g>
     <g id="line2d_6">
      <g>
       <use style="fill:#262626;stroke:#262626;stroke-width:1.6;" x="472.32" xlink:href="#m7b60e3c0a6" y="63.36"/>
      </g>
     </g>
     <g id="text_3">
      <!-- 1.5 -->
      <g style="fill:#262626;" transform="translate(462.145 577.195)scale(0.16 -0.16)">
       <use xlink:href="#LiberationSans-31"/>
       <use x="55.615234375" xlink:href="#LiberationSans-2e"/>
       <use x="83.3984375" xlink:href="#LiberationSans-35"/>
      </g>
     </g>
    </g>
    <g id="xtick_4">
     <g id="line2d_7">
      <g>
       <use style="fill:#262626;stroke:#262626;stroke-width:1.6;" x="636.0" xlink:href="#m7b60e3c0a6" y="554.4"/>
      </g>
     </g>
     <g id="line2d_8">
      <g>
       <use style="fill:#262626;stroke:#262626;stroke-width:1.6;" x="636.0" xlink:href="#m7b60e3c0a6" y="63.36"/>
      </g>
     </g>
     <g id="text_4">
      <!-- 2.0 -->
      <defs>
       <path d="
M5.03125 0
L5.03125 6.20312
Q7.51562 11.9219 11.1094 16.2812
Q14.7031 20.6562 18.6562 24.1875
Q22.6094 27.7344 26.4844 30.7656
Q30.375 33.7969 33.5 36.8125
Q36.625 39.8438 38.5469 43.1562
Q40.4844 46.4844 40.4844 50.6875
Q40.4844 53.6094 39.5938 55.8281
Q38.7188 58.0625 37.0625 59.5625
Q35.4062 61.0781 33.0781 61.8281
Q30.7656 62.5938 27.9375 62.5938
Q25.2969 62.5938 22.9688 61.8594
Q20.6562 61.1406 18.8438 59.6719
Q17.0469 58.2031 15.8906 56.0312
Q14.75 53.8594 14.4062 50.9844
L5.42188 51.8125
Q5.85938 55.5156 7.46875 58.7812
Q9.07812 62.0625 11.9062 64.5312
Q14.75 67 18.7188 68.4062
Q22.7031 69.8281 27.9375 69.8281
Q33.0625 69.8281 37.0625 68.6094
Q41.0625 67.3906 43.8125 64.9844
Q46.5781 62.5938 48.0469 59.0781
Q49.5156 55.5625 49.5156 50.9844
Q49.5156 47.5156 48.2656 44.3906
Q47.0156 41.2656 44.9375 38.4219
Q42.875 35.5938 40.1406 32.9531
Q37.4062 30.3281 34.4219 27.8125
Q31.4531 25.2969 28.4219 22.8281
Q25.3906 20.3594 22.7188 17.8594
Q20.0625 15.375 17.9688 12.8125
Q15.875 10.25 14.7031 7.46875
L50.5938 7.46875
L50.5938 0
z
" id="LiberationSans-32"/>
      </defs>
      <g style="fill:#262626;" transform="translate(625.595 577.195)scale(0.16 -0.16)">
       <use xlink:href="#LiberationSans-32"/>
       <use x="55.615234375" xlink:href="#LiberationSans-2e"/>
       <use x="83.3984375" xlink:href="#LiberationSans-30"/>
      </g>
     </g>
    </g>
    <g id="xtick_5">
     <g id="line2d_9">
      <g>
       <use style="fill:#262626;stroke:#262626;stroke-width:1.6;" x="799.68" xlink:href="#m7b60e3c0a6" y="554.4"/>
      </g>
     </g>
     <g id="line2d_10">
      <g>
       <use style="fill:#262626;stroke:#262626;stroke-width:1.6;" x="799.68" xlink:href="#m7b60e3c0a6" y="63.36"/>
      </g>
     </g>
     <g id="text_5">
      <!-- 2.5 -->
      <g style="fill:#262626;" transform="translate(789.2975 577.195)scale(0.16 -0.16)">
       <use xlink:href="#LiberationSans-32"/>
       <use x="55.615234375" xlink:href="#LiberationSans-2e"/>
       <use x="83.3984375" xlink:href="#LiberationSans-35"/>
      </g>
     </g>
    </g>
   </g>
   <g id="matplotlib.axis_2">
    <g id="ytick_1">
     <g id="line2d_11">
      <g>
       <use style="fill:#262626;stroke:#262626;stroke-width:1.6;" x="115.2" xlink:href="#m7b60e3c0a6" y="505.296"/>
      </g>
     </g>
     <g id="line2d_12">
      <g>
       <use style="fill:#262626;stroke:#262626;stroke-width:1.6;" x="829.44" xlink:href="#m7b60e3c0a6" y="505.296"/>
      </g>
     </g>
     <g id="text_6">
      <!-- 1.4 -->
      <defs>
       <path d="
M43.0156 15.5781
L43.0156 0
L34.7188 0
L34.7188 15.5781
L2.29688 15.5781
L2.29688 22.4062
L33.7969 68.7969
L43.0156 68.7969
L43.0156 22.5156
L52.6875 22.5156
L52.6875 15.5781
z

M34.7188 58.8906
Q34.625 58.6406 34.2344 57.9375
Q33.8438 57.2344 33.3438 56.3438
Q32.8594 55.4688 32.3438 54.5625
Q31.8438 53.6562 31.4531 53.0781
L13.8125 27.0938
Q13.5781 26.7031 13.1094 26.0625
Q12.6406 25.4375 12.1562 24.7812
Q11.6719 24.125 11.1719 23.4844
Q10.6875 22.8594 10.4062 22.5156
L34.7188 22.5156
z
" id="LiberationSans-34"/>
      </defs>
      <g style="fill:#262626;" transform="translate(83.4475 509.4335)scale(0.16 -0.16)">
       <use xlink:href="#LiberationSans-31"/>
       <use x="55.615234375" xlink:href="#LiberationSans-2e"/>
       <use x="83.3984375" xlink:href="#LiberationSans-34"/>
      </g>
     </g>
    </g>
    <g id="ytick_2">
     <g id="line2d_13">
      <g>
       <use style="fill:#262626;stroke:#262626;stroke-width:1.6;" x="115.2" xlink:href="#m7b60e3c0a6" y="439.824"/>
      </g>
     </g>
     <g id="line2d_14">
      <g>
       <use style="fill:#262626;stroke:#262626;stroke-width:1.6;" x="829.44" xlink:href="#m7b60e3c0a6" y="439.824"/>
      </g>
     </g>
     <g id="text_7">
      <!-- 1.6 -->
      <defs>
       <path d="
M51.2188 22.5156
Q51.2188 17.3281 49.7812 13
Q48.3438 8.6875 45.5312 5.57812
Q42.7188 2.48438 38.5625 0.75
Q34.4219 -0.984375 29 -0.984375
Q23 -0.984375 18.5 1.3125
Q14.0156 3.60938 11.0312 7.92188
Q8.0625 12.25 6.5625 18.5312
Q5.07812 24.8125 5.07812 32.8125
Q5.07812 42 6.76562 48.9219
Q8.45312 55.8594 11.625 60.5
Q14.7969 65.1406 19.3594 67.4844
Q23.9219 69.8281 29.6875 69.8281
Q33.2031 69.8281 36.2812 69.0938
Q39.3594 68.3594 41.875 66.7188
Q44.3906 65.0938 46.2812 62.4062
Q48.1875 59.7188 49.3125 55.8125
L40.9219 54.2969
Q39.5469 58.7344 36.5469 60.7188
Q33.5469 62.7031 29.5938 62.7031
Q25.9844 62.7031 23.0469 60.9844
Q20.125 59.2812 18.0625 55.875
Q16.0156 52.4844 14.9062 47.3594
Q13.8125 42.2344 13.8125 35.4062
Q16.2188 39.8438 20.5625 42.1562
Q24.9062 44.4844 30.5156 44.4844
Q35.2031 44.4844 39.0156 42.9688
Q42.8281 41.4531 45.5312 38.5938
Q48.25 35.75 49.7344 31.6719
Q51.2188 27.5938 51.2188 22.5156
M42.2812 22.125
Q42.2812 25.6875 41.4062 28.5625
Q40.5312 31.4531 38.7656 33.4688
Q37.0156 35.5 34.4219 36.5938
Q31.8438 37.7031 28.4219 37.7031
Q26.0312 37.7031 23.5781 36.9844
Q21.1406 36.2812 19.1562 34.6875
Q17.1875 33.1094 15.9375 30.5156
Q14.7031 27.9375 14.7031 24.2188
Q14.7031 20.4062 15.6719 17.1094
Q16.6562 13.8125 18.4844 11.375
Q20.3125 8.9375 22.8906 7.51562
Q25.4844 6.10938 28.7188 6.10938
Q31.8906 6.10938 34.4062 7.20312
Q36.9219 8.29688 38.6719 10.375
Q40.4375 12.4531 41.3594 15.4219
Q42.2812 18.4062 42.2812 22.125" id="LiberationSans-36"/>
      </defs>
      <g style="fill:#262626;" transform="translate(83.6825 443.9615)scale(0.16 -0.16)">
       <use xlink:href="#LiberationSans-31"/>
       <use x="55.615234375" xlink:href="#LiberationSans-2e"/>
       <use x="83.3984375" xlink:href="#LiberationSans-36"/>
      </g>
     </g>
    </g>
    <g id="ytick_3">
     <g id="line2d_15">
      <g>
       <use style="fill:#262626;stroke:#262626;stroke-width:1.6;" x="115.2" xlink:href="#m7b60e3c0a6" y="374.352"/>
      </g>
     </g>
     <g id="line2d_16">
      <g>
       <use style="fill:#262626;stroke:#262626;stroke-width:1.6;" x="829.44" xlink:href="#m7b60e3c0a6" y="374.352"/>
      </g>
     </g>
     <g id="text_8">
      <!-- 1.8 -->
      <defs>
       <path d="
M51.2656 19.1875
Q51.2656 14.7969 49.875 11.1094
Q48.4844 7.42188 45.625 4.73438
Q42.7812 2.04688 38.3281 0.53125
Q33.8906 -0.984375 27.8281 -0.984375
Q21.7812 -0.984375 17.3594 0.53125
Q12.9375 2.04688 10.0312 4.70312
Q7.125 7.375 5.73438 11.0625
Q4.34375 14.75 4.34375 19.0938
Q4.34375 22.8594 5.48438 25.7812
Q6.64062 28.7188 8.5625 30.8281
Q10.5 32.9531 12.9688 34.25
Q15.4375 35.5469 18.0625 35.9844
L18.0625 36.1875
Q15.1875 36.8594 12.9062 38.375
Q10.6406 39.8906 9.09375 42.0156
Q7.5625 44.1406 6.75 46.7188
Q5.95312 49.3125 5.95312 52.2031
Q5.95312 55.8125 7.34375 59
Q8.73438 62.2031 11.4688 64.625
Q14.2031 67.0469 18.25 68.4375
Q22.3125 69.8281 27.6406 69.8281
Q33.25 69.8281 37.375 68.4062
Q41.5 67 44.2031 64.5781
Q46.9219 62.1562 48.2344 58.9375
Q49.5625 55.7188 49.5625 52.0938
Q49.5625 49.2656 48.75 46.6719
Q47.9531 44.0938 46.4062 41.9688
Q44.875 39.8438 42.5938 38.3438
Q40.3281 36.8594 37.3594 36.2812
L37.3594 36.0781
Q40.3281 35.5938 42.8594 34.2969
Q45.4062 33.0156 47.2656 30.8906
Q49.125 28.7656 50.1875 25.8281
Q51.2656 22.9062 51.2656 19.1875
M40.4375 51.6094
Q40.4375 54.2031 39.7656 56.3438
Q39.1094 58.5 37.5938 60.0312
Q36.0781 61.5781 33.6406 62.4219
Q31.2031 63.2812 27.6406 63.2812
Q24.1719 63.2812 21.7812 62.4219
Q19.3906 61.5781 17.8438 60.0312
Q16.3125 58.5 15.625 56.3438
Q14.9375 54.2031 14.9375 51.6094
Q14.9375 49.5625 15.4688 47.4062
Q16.0156 45.2656 17.4219 43.5
Q18.8438 41.75 21.3281 40.625
Q23.8281 39.5 27.7344 39.5
Q31.8906 39.5 34.4062 40.625
Q36.9219 41.75 38.25 43.5
Q39.5938 45.2656 40.0156 47.4062
Q40.4375 49.5625 40.4375 51.6094
M42.1406 20.0156
Q42.1406 22.5156 41.4531 24.8281
Q40.7656 27.1562 39.1094 28.9375
Q37.4531 30.7188 34.6406 31.8125
Q31.8438 32.9062 27.6406 32.9062
Q23.7812 32.9062 21.0625 31.8125
Q18.3594 30.7188 16.6719 28.9062
Q14.9844 27.0938 14.2031 24.7188
Q13.4219 22.3594 13.4219 19.8281
Q13.4219 16.6562 14.2031 14.0312
Q14.9844 11.4219 16.6875 9.54688
Q18.4062 7.67188 21.1875 6.64062
Q23.9688 5.60938 27.9375 5.60938
Q31.9375 5.60938 34.6719 6.64062
Q37.4062 7.67188 39.0625 9.54688
Q40.7188 11.4219 41.4219 14.0781
Q42.1406 16.75 42.1406 20.0156" id="LiberationSans-38"/>
      </defs>
      <g style="fill:#262626;" transform="translate(83.675 378.4895)scale(0.16 -0.16)">
       <use xlink:href="#LiberationSans-31"/>
       <use x="55.615234375" xlink:href="#LiberationSans-2e"/>
       <use x="83.3984375" xlink:href="#LiberationSans-38"/>
      </g>
     </g>
    </g>
    <g id="ytick_4">
     <g id="line2d_17">
      <g>
       <use style="fill:#262626;stroke:#262626;stroke-width:1.6;" x="115.2" xlink:href="#m7b60e3c0a6" y="308.88"/>
      </g>
     </g>
     <g id="line2d_18">
      <g>
       <use style="fill:#262626;stroke:#262626;stroke-width:1.6;" x="829.44" xlink:href="#m7b60e3c0a6" y="308.88"/>
      </g>
     </g>
     <g id="text_9">
      <!-- 2.0 -->
      <g style="fill:#262626;" transform="translate(83.19 313.0175)scale(0.16 -0.16)">
       <use xlink:href="#LiberationSans-32"/>
       <use x="55.615234375" xlink:href="#LiberationSans-2e"/>
       <use x="83.3984375" xlink:href="#LiberationSans-30"/>
      </g>
     </g>
    </g>
    <g id="ytick_5">
     <g id="line2d_19">
      <g>
       <use style="fill:#262626;stroke:#262626;stroke-width:1.6;" x="115.2" xlink:href="#m7b60e3c0a6" y="243.408"/>
      </g>
     </g>
     <g id="line2d_20">
      <g>
       <use style="fill:#262626;stroke:#262626;stroke-width:1.6;" x="829.44" xlink:href="#m7b60e3c0a6" y="243.408"/>
      </g>
     </g>
     <g id="text_10">
      <!-- 2.2 -->
      <g style="fill:#262626;" transform="translate(83.3675 247.5455)scale(0.16 -0.16)">
       <use xlink:href="#LiberationSans-32"/>
       <use x="55.615234375" xlink:href="#LiberationSans-2e"/>
       <use x="83.3984375" xlink:href="#LiberationSans-32"/>
      </g>
     </g>
    </g>
    <g id="ytick_6">
     <g id="line2d_21">
      <g>
       <use style="fill:#262626;stroke:#262626;stroke-width:1.6;" x="115.2" xlink:href="#m7b60e3c0a6" y="177.936"/>
      </g>
     </g>
     <g id="line2d_22">
      <g>
       <use style="fill:#262626;stroke:#262626;stroke-width:1.6;" x="829.44" xlink:href="#m7b60e3c0a6" y="177.936"/>
      </g>
     </g>
     <g id="text_11">
      <!-- 2.4 -->
      <g style="fill:#262626;" transform="translate(83.0325 182.0735)scale(0.16 -0.16)">
       <use xlink:href="#LiberationSans-32"/>
       <use x="55.615234375" xlink:href="#LiberationSans-2e"/>
       <use x="83.3984375" xlink:href="#LiberationSans-34"/>
      </g>
     </g>
    </g>
    <g id="ytick_7">
     <g id="line2d_23">
      <g>
       <use style="fill:#262626;stroke:#262626;stroke-width:1.6;" x="115.2" xlink:href="#m7b60e3c0a6" y="112.464"/>
      </g>
     </g>
     <g id="line2d_24">
      <g>
       <use style="fill:#262626;stroke:#262626;stroke-width:1.6;" x="829.44" xlink:href="#m7b60e3c0a6" y="112.464"/>
      </g>
     </g>
     <g id="text_12">
      <!-- 2.6 -->
      <g style="fill:#262626;" transform="translate(83.2675 116.6015)scale(0.16 -0.16)">
       <use xlink:href="#LiberationSans-32"/>
       <use x="55.615234375" xlink:href="#LiberationSans-2e"/>
       <use x="83.3984375" xlink:href="#LiberationSans-36"/>
      </g>
     </g>
    </g>
   </g>
   <g id="PathCollection_1">
    <defs>
     <path d="
M0 4.47214
C1.18602 4.47214 2.32363 4.00092 3.16228 3.16228
C4.00092 2.32363 4.47214 1.18602 4.47214 0
C4.47214 -1.18602 4.00092 -2.32363 3.16228 -3.16228
C2.32363 -4.00092 1.18602 -4.47214 0 -4.47214
C-1.18602 -4.47214 -2.32363 -4.00092 -3.16228 -3.16228
C-4.00092 -2.32363 -4.47214 -1.18602 -4.47214 0
C-4.47214 1.18602 -4.00092 2.32363 -3.16228 3.16228
C-2.32363 4.00092 -1.18602 4.47214 0 4.47214
z
" id="mf7cd54dde7"/>
    </defs>
    <g clip-path="url(#peb9104e802)">
     <use style="fill:#4c72b0;fill-opacity:0.5;" x="-232.839248416" xlink:href="#mf7cd54dde7" y="732.212555637"/>
     <use style="fill:#4c72b0;fill-opacity:0.5;" x="-1.0" xlink:href="#mf7cd54dde7" y="692.103374332"/>
     <use style="fill:#4c72b0;fill-opacity:0.5;" x="132.526728151" xlink:href="#mf7cd54dde7" y="669.00267941"/>
     <use style="fill:#4c72b0;fill-opacity:0.5;" x="-0.773231557506" xlink:href="#mf7cd54dde7" y="907.769834934"/>
     <use style="fill:#4c72b0;fill-opacity:0.5;" x="-1.0" xlink:href="#mf7cd54dde7" y="907.483801225"/>
     <use style="fill:#4c72b0;fill-opacity:0.5;" x="-1.0" xlink:href="#mf7cd54dde7" y="763.884115378"/>
     <use style="fill:#4c72b0;fill-opacity:0.5;" x="566.063471932" xlink:href="#mf7cd54dde7" y="999.769039851"/>
     <use style="fill:#4c72b0;fill-opacity:0.5;" x="610.41173537" xlink:href="#mf7cd54dde7" y="904.135291989"/>
     <use style="fill:#4c72b0;fill-opacity:0.5;" x="642.874903741" xlink:href="#mf7cd54dde7" y="800.927247155"/>
     <use style="fill:#4c72b0;fill-opacity:0.5;" x="62.4841723834" xlink:href="#mf7cd54dde7" y="989.762529858"/>
     <use style="fill:#4c72b0;fill-opacity:0.5;" x="304.731683642" xlink:href="#mf7cd54dde7" y="946.519043507"/>
     <use style="fill:#4c72b0;fill-opacity:0.5;" x="629.586740991" xlink:href="#mf7cd54dde7" y="836.490493525"/>
     <use style="fill:#4c72b0;fill-opacity:0.5;" x="443.872337411" xlink:href="#mf7cd54dde7" y="1126.37573005"/>
     <use style="fill:#4c72b0;fill-opacity:0.5;" x="-1.0" xlink:href="#mf7cd54dde7" y="672.399650453"/>
     <use style="fill:#4c72b0;fill-opacity:0.5;" x="-1.0" xlink:href="#mf7cd54dde7" y="658.165437906"/>
     <use style="fill:#4c72b0;fill-opacity:0.5;" x="279.526697917" xlink:href="#mf7cd54dde7" y="840.804730111"/>
     <use style="fill:#4c72b0;fill-opacity:0.5;" x="-1.0" xlink:href="#mf7cd54dde7" y="811.755682204"/>
     <use style="fill:#4c72b0;fill-opacity:0.5;" x="-1.0" xlink:href="#mf7cd54dde7" y="774.855081905"/>
     <use style="fill:#4c72b0;fill-opacity:0.5;" x="179.655904938" xlink:href="#mf7cd54dde7" y="1097.79150226"/>
     <use style="fill:#4c72b0;fill-opacity:0.5;" x="-1.0" xlink:href="#mf7cd54dde7" y="841.364457044"/>
     <use style="fill:#4c72b0;fill-opacity:0.5;" x="-1.0" xlink:href="#mf7cd54dde7" y="791.838344829"/>
     <use style="fill:#4c72b0;fill-opacity:0.5;" x="341.412723019" xlink:href="#mf7cd54dde7" y="1151.26261963"/>
     <use style="fill:#4c72b0;fill-opacity:0.5;" x="162.818735437" xlink:href="#mf7cd54dde7" y="1062.7070022"/>
     <use style="fill:#4c72b0;fill-opacity:0.5;" x="375.558808442" xlink:href="#mf7cd54dde7" y="1112.5672192"/>
     <use style="fill:#4c72b0;fill-opacity:0.5;" x="170.789713348" xlink:href="#mf7cd54dde7" y="696.288352605"/>
     <use style="fill:#4c72b0;fill-opacity:0.5;" x="325.280779847" xlink:href="#mf7cd54dde7" y="926.537847595"/>
     <use style="fill:#4c72b0;fill-opacity:0.5;" x="-1.0" xlink:href="#mf7cd54dde7" y="778.903501126"/>
     <use style="fill:#4c72b0;fill-opacity:0.5;" x="-1.0" xlink:href="#mf7cd54dde7" y="654.090659575"/>
     <use style="fill:#4c72b0;fill-opacity:0.5;" x="74.2032040692" xlink:href="#mf7cd54dde7" y="661.219611033"/>
     <use style="fill:#4c72b0;fill-opacity:0.5;" x="330.814077844" xlink:href="#mf7cd54dde7" y="1124.75316385"/>
     <use style="fill:#4c72b0;fill-opacity:0.5;" x="558.873177909" xlink:href="#mf7cd54dde7" y="983.6580242"/>
     <use style="fill:#4c72b0;fill-opacity:0.5;" x="254.83373477" xlink:href="#mf7cd54dde7" y="755.027985935"/>
     <use style="fill:#4c72b0;fill-opacity:0.5;" x="-1.0" xlink:href="#mf7cd54dde7" y="758.117631268"/>
     <use style="fill:#4c72b0;fill-opacity:0.5;" x="-1.0" xlink:href="#mf7cd54dde7" y="940.574956996"/>
     <use style="fill:#4c72b0;fill-opacity:0.5;" x="492.988771702" xlink:href="#mf7cd54dde7" y="1084.9241012"/>
     <use style="fill:#4c72b0;fill-opacity:0.5;" x="60.9570251875" xlink:href="#mf7cd54dde7" y="951.202609285"/>
     <use style="fill:#4c72b0;fill-opacity:0.5;" x="-1.0" xlink:href="#mf7cd54dde7" y="872.866711624"/>
     <use style="fill:#4c72b0;fill-opacity:0.5;" x="-1.0" xlink:href="#mf7cd54dde7" y="825.642213734"/>
     <use style="fill:#4c72b0;fill-opacity:0.5;" x="471.303693131" xlink:href="#mf7cd54dde7" y="1082.83376344"/>
     <use style="fill:#4c72b0;fill-opacity:0.5;" x="-1.0" xlink:href="#mf7cd54dde7" y="880.78191375"/>
     <use style="fill:#4c72b0;fill-opacity:0.5;" x="-1.0" xlink:href="#mf7cd54dde7" y="875.864166439"/>
     <use style="fill:#4c72b0;fill-opacity:0.5;" x="200.505089143" xlink:href="#mf7cd54dde7" y="721.226072981"/>
     <use style="fill:#4c72b0;fill-opacity:0.5;" x="275.085577893" xlink:href="#mf7cd54dde7" y="806.735884138"/>
     <use style="fill:#4c72b0;fill-opacity:0.5;" x="602.68574677" xlink:href="#mf7cd54dde7" y="926.52943172"/>
     <use style="fill:#4c72b0;fill-opacity:0.5;" x="-1.0" xlink:href="#mf7cd54dde7" y="960.03877922"/>
     <use style="fill:#4c72b0;fill-opacity:0.5;" x="-1.0" xlink:href="#mf7cd54dde7" y="1030.82762149"/>
     <use style="fill:#4c72b0;fill-opacity:0.5;" x="99.2526478831" xlink:href="#mf7cd54dde7" y="1046.66364297"/>
     <use style="fill:#4c72b0;fill-opacity:0.5;" x="225.727039687" xlink:href="#mf7cd54dde7" y="1105.044676"/>
     <use style="fill:#4c72b0;fill-opacity:0.5;" x="96.4990670941" xlink:href="#mf7cd54dde7" y="1010.40242382"/>
     <use style="fill:#4c72b0;fill-opacity:0.5;" x="95.9718662785" xlink:href="#mf7cd54dde7" y="668.455786289"/>
     <use style="fill:#4c72b0;fill-opacity:0.5;" x="-1.0" xlink:href="#mf7cd54dde7" y="713.724530694"/>
     <use style="fill:#4c72b0;fill-opacity:0.5;" x="-1.0" xlink:href="#mf7cd54dde7" y="1012.86247348"/>
     <use style="fill:#4c72b0;fill-opacity:0.5;" x="281.475088129" xlink:href="#mf7cd54dde7" y="1133.50358767"/>
     <use style="fill:#4c72b0;fill-opacity:0.5;" x="51.7821701703" xlink:href="#mf7cd54dde7" y="615.50636888"/>
     <use style="fill:#4c72b0;fill-opacity:0.5;" x="537.132908766" xlink:href="#mf7cd54dde7" y="1042.13043841"/>
     <use style="fill:#4c72b0;fill-opacity:0.5;" x="295.662701087" xlink:href="#mf7cd54dde7" y="913.931931768"/>
     <use style="fill:#4c72b0;fill-opacity:0.5;" x="-1.0" xlink:href="#mf7cd54dde7" y="578.072691299"/>
     <use style="fill:#4c72b0;fill-opacity:0.5;" x="-1.0" xlink:href="#mf7cd54dde7" y="313.226879937"/>
     <use style="fill:#4c72b0;fill-opacity:0.5;" x="276.823431176" xlink:href="#mf7cd54dde7" y="357.95879986"/>
     <use style="fill:#4c72b0;fill-opacity:0.5;" x="-1.0" xlink:href="#mf7cd54dde7" y="306.757994429"/>
     <use style="fill:#4c72b0;fill-opacity:0.5;" x="-1.0" xlink:href="#mf7cd54dde7" y="295.761877568"/>
     <use style="fill:#4c72b0;fill-opacity:0.5;" x="282.788097051" xlink:href="#mf7cd54dde7" y="334.728434145"/>
     <use style="fill:#4c72b0;fill-opacity:0.5;" x="-1.0" xlink:href="#mf7cd54dde7" y="307.807031145"/>
     <use style="fill:#4c72b0;fill-opacity:0.5;" x="-1.0" xlink:href="#mf7cd54dde7" y="277.963088159"/>
     <use style="fill:#4c72b0;fill-opacity:0.5;" x="399.699616692" xlink:href="#mf7cd54dde7" y="280.855289939"/>
     <use style="fill:#4c72b0;fill-opacity:0.5;" x="382.127909602" xlink:href="#mf7cd54dde7" y="199.407140867"/>
     <use style="fill:#4c72b0;fill-opacity:0.5;" x="-1.0" xlink:href="#mf7cd54dde7" y="211.226974076"/>
     <use style="fill:#4c72b0;fill-opacity:0.5;" x="-1.0" xlink:href="#mf7cd54dde7" y="397.64818351"/>
     <use style="fill:#4c72b0;fill-opacity:0.5;" x="241.148089015" xlink:href="#mf7cd54dde7" y="467.150988933"/>
     <use style="fill:#4c72b0;fill-opacity:0.5;" x="-1.0" xlink:href="#mf7cd54dde7" y="415.415881933"/>
     <use style="fill:#4c72b0;fill-opacity:0.5;" x="-1.0" xlink:href="#mf7cd54dde7" y="290.706397772"/>
     <use style="fill:#4c72b0;fill-opacity:0.5;" x="229.923675911" xlink:href="#mf7cd54dde7" y="312.954402689"/>
     <use style="fill:#4c72b0;fill-opacity:0.5;" x="286.190864203" xlink:href="#mf7cd54dde7" y="400.119725784"/>
     <use style="fill:#4c72b0;fill-opacity:0.5;" x="-1.0" xlink:href="#mf7cd54dde7" y="342.873502346"/>
     <use style="fill:#4c72b0;fill-opacity:0.5;" x="-1.0" xlink:href="#mf7cd54dde7" y="301.265954578"/>
     <use style="fill:#4c72b0;fill-opacity:0.5;" x="286.983857234" xlink:href="#mf7cd54dde7" y="315.305337427"/>
     <use style="fill:#4c72b0;fill-opacity:0.5;" x="335.298212394" xlink:href="#mf7cd54dde7" y="361.307051075"/>
     <use style="fill:#4c72b0;fill-opacity:0.5;" x="253.233549045" xlink:href="#mf7cd54dde7" y="380.818014031"/>
     <use style="fill:#4c72b0;fill-opacity:0.5;" x="-1.0" xlink:href="#mf7cd54dde7" y="287.978092024"/>
     <use style="fill:#4c72b0;fill-opacity:0.5;" x="-1.0" xlink:href="#mf7cd54dde7" y="232.740286949"/>
     <use style="fill:#4c72b0;fill-opacity:0.5;" x="337.150661382" xlink:href="#mf7cd54dde7" y="306.825495181"/>
     <use style="fill:#4c72b0;fill-opacity:0.5;" x="-1.0" xlink:href="#mf7cd54dde7" y="296.105020913"/>
     <use style="fill:#4c72b0;fill-opacity:0.5;" x="-1.0" xlink:href="#mf7cd54dde7" y="247.353422037"/>
     <use style="fill:#4c72b0;fill-opacity:0.5;" x="482.284393333" xlink:href="#mf7cd54dde7" y="163.794033034"/>
     <use style="fill:#4c72b0;fill-opacity:0.5;" x="258.376624795" xlink:href="#mf7cd54dde7" y="207.111147396"/>
     <use style="fill:#4c72b0;fill-opacity:0.5;" x="-1.0" xlink:href="#mf7cd54dde7" y="235.676508441"/>
     <use style="fill:#4c72b0;fill-opacity:0.5;" x="-1.0" xlink:href="#mf7cd54dde7" y="197.146936289"/>
     <use style="fill:#4c72b0;fill-opacity:0.5;" x="296.317915017" xlink:href="#mf7cd54dde7" y="218.09476541"/>
     <use style="fill:#4c72b0;fill-opacity:0.5;" x="246.401405257" xlink:href="#mf7cd54dde7" y="316.325268881"/>
     <use style="fill:#4c72b0;fill-opacity:0.5;" x="342.161631634" xlink:href="#mf7cd54dde7" y="312.32488142"/>
     <use style="fill:#4c72b0;fill-opacity:0.5;" x="454.89282278" xlink:href="#mf7cd54dde7" y="396.652879475"/>
     <use style="fill:#4c72b0;fill-opacity:0.5;" x="-1.0" xlink:href="#mf7cd54dde7" y="351.702477845"/>
     <use style="fill:#4c72b0;fill-opacity:0.5;" x="-1.0" xlink:href="#mf7cd54dde7" y="187.079597056"/>
     <use style="fill:#4c72b0;fill-opacity:0.5;" x="421.865805818" xlink:href="#mf7cd54dde7" y="216.347709212"/>
     <use style="fill:#4c72b0;fill-opacity:0.5;" x="227.617444399" xlink:href="#mf7cd54dde7" y="343.966536261"/>
     <use style="fill:#4c72b0;fill-opacity:0.5;" x="-1.0" xlink:href="#mf7cd54dde7" y="265.119624613"/>
     <use style="fill:#4c72b0;fill-opacity:0.5;" x="-1.0" xlink:href="#mf7cd54dde7" y="357.520756843"/>
     <use style="fill:#4c72b0;fill-opacity:0.5;" x="276.442359812" xlink:href="#mf7cd54dde7" y="309.603805563"/>
     <use style="fill:#4c72b0;fill-opacity:0.5;" x="-1.0" xlink:href="#mf7cd54dde7" y="253.953424376"/>
     <use style="fill:#4c72b0;fill-opacity:0.5;" x="-1.0" xlink:href="#mf7cd54dde7" y="259.411101434"/>
     <use style="fill:#4c72b0;fill-opacity:0.5;" x="289.323866803" xlink:href="#mf7cd54dde7" y="403.581301703"/>
     <use style="fill:#4c72b0;fill-opacity:0.5;" x="354.613037268" xlink:href="#mf7cd54dde7" y="379.13315603"/>
     <use style="fill:#4c72b0;fill-opacity:0.5;" x="218.568222252" xlink:href="#mf7cd54dde7" y="224.167400353"/>
     <use style="fill:#4c72b0;fill-opacity:0.5;" x="-1.0" xlink:href="#mf7cd54dde7" y="270.151842271"/>
     <use style="fill:#4c72b0;fill-opacity:0.5;" x="-1.0" xlink:href="#mf7cd54dde7" y="292.78704751"/>
     <use style="fill:#4c72b0;fill-opacity:0.5;" x="302.791390368" xlink:href="#mf7cd54dde7" y="269.391279779"/>
     <use style="fill:#4c72b0;fill-opacity:0.5;" x="-1.0" xlink:href="#mf7cd54dde7" y="286.282847082"/>
     <use style="fill:#4c72b0;fill-opacity:0.5;" x="-1.0" xlink:href="#mf7cd54dde7" y="333.356762327"/>
     <use style="fill:#4c72b0;fill-opacity:0.5;" x="398.283474691" xlink:href="#mf7cd54dde7" y="379.065247361"/>
    </g>
   </g>
   <g id="PathCollection_2">
    <defs>
     <path d="
M0 5.47723
C1.45258 5.47723 2.84586 4.90011 3.87298 3.87298
C4.90011 2.84586 5.47723 1.45258 5.47723 0
C5.47723 -1.45258 4.90011 -2.84586 3.87298 -3.87298
C2.84586 -4.90011 1.45258 -5.47723 0 -5.47723
C-1.45258 -5.47723 -2.84586 -4.90011 -3.87298 -3.87298
C-4.90011 -2.84586 -5.47723 -1.45258 -5.47723 0
C-5.47723 1.45258 -4.90011 2.84586 -3.87298 3.87298
C-2.84586 4.90011 -1.45258 5.47723 0 5.47723
z
" id="ma9f75de73d"/>
    </defs>
    <g clip-path="url(#peb9104e802)">
     <use style="fill:#4c72b0;" x="399.699616692" xlink:href="#ma9f75de73d" y="280.855289939"/>
    </g>
   </g>
   <g id="PathCollection_3">
    <defs>
     <path d="
M0 5.47723
C1.45258 5.47723 2.84586 4.90011 3.87298 3.87298
C4.90011 2.84586 5.47723 1.45258 5.47723 0
C5.47723 -1.45258 4.90011 -2.84586 3.87298 -3.87298
C2.84586 -4.90011 1.45258 -5.47723 0 -5.47723
C-1.45258 -5.47723 -2.84586 -4.90011 -3.87298 -3.87298
C-4.90011 -2.84586 -5.47723 -1.45258 -5.47723 0
C-5.47723 1.45258 -4.90011 2.84586 -3.87298 3.87298
C-2.84586 4.90011 -1.45258 5.47723 0 5.47723
z
" id="m52ecd8bee8"/>
    </defs>
    <g clip-path="url(#peb9104e802)">
     <use style="fill:#55a868;" x="482.284393333" xlink:href="#m52ecd8bee8" y="163.794033034"/>
    </g>
   </g>
   <g id="PathCollection_4">
    <defs>
     <path d="
M0 5.47723
C1.45258 5.47723 2.84586 4.90011 3.87298 3.87298
C4.90011 2.84586 5.47723 1.45258 5.47723 0
C5.47723 -1.45258 4.90011 -2.84586 3.87298 -3.87298
C2.84586 -4.90011 1.45258 -5.47723 0 -5.47723
C-1.45258 -5.47723 -2.84586 -4.90011 -3.87298 -3.87298
C-4.90011 -2.84586 -5.47723 -1.45258 -5.47723 0
C-5.47723 1.45258 -4.90011 2.84586 -3.87298 3.87298
C-2.84586 4.90011 -1.45258 5.47723 0 5.47723
z
" id="me9302d081a"/>
    </defs>
    <g clip-path="url(#peb9104e802)">
     <use style="fill:#c44e52;" x="454.89282278" xlink:href="#me9302d081a" y="396.652879475"/>
    </g>
   </g>
   <g id="PathCollection_5">
    <defs>
     <path d="
M-5 5
L5 -5
M-5 -5
L5 5" id="md760eaf8e3" style="stroke:#c44e52;stroke-width:3.0;"/>
    </defs>
    <g clip-path="url(#peb9104e802)">
     <use style="fill:#c44e52;stroke:#c44e52;stroke-width:3.0;" x="398.283474691" xlink:href="#md760eaf8e3" y="379.065247361"/>
     <use style="fill:#c44e52;stroke:#c44e52;stroke-width:3.0;" x="354.613037268" xlink:href="#md760eaf8e3" y="379.13315603"/>
     <use style="fill:#c44e52;stroke:#c44e52;stroke-width:3.0;" x="335.298212394" xlink:href="#md760eaf8e3" y="361.307051075"/>
     <use style="fill:#c44e52;stroke:#c44e52;stroke-width:3.0;" x="399.699616692" xlink:href="#md760eaf8e3" y="280.855289939"/>
     <use style="fill:#c44e52;stroke:#c44e52;stroke-width:3.0;" x="342.161631634" xlink:href="#md760eaf8e3" y="312.32488142"/>
    </g>
   </g>
   <g id="patch_3">
    <path clip-path="url(#peb9104e802)" d="
M497.284 280.855
L490.736 284.129
L490.736 281.019
L399.7 281.019
L399.7 280.692
L490.736 280.692
L490.736 277.582
z
" style="fill:#4c72b0;stroke:#4c72b0;stroke-linejoin:miter;stroke-width:0.48;"/>
   </g>
   <g id="patch_4">
    <path clip-path="url(#peb9104e802)" d="
M686.053 163.794
L679.506 167.068
L679.506 163.958
L482.284 163.958
L482.284 163.63
L679.506 163.63
L679.506 160.52
z
" style="fill:#55a868;stroke:#55a868;stroke-linejoin:miter;stroke-width:0.48;"/>
   </g>
   <g id="patch_5">
    <path clip-path="url(#peb9104e802)" d="
M595.675 396.653
L589.127 399.926
L589.127 396.817
L454.893 396.817
L454.893 396.489
L589.127 396.489
L589.127 393.379
z
" style="fill:#c44e52;stroke:#c44e52;stroke-linejoin:miter;stroke-width:0.48;"/>
   </g>
   <g id="line2d_25">
    <path clip-path="url(#peb9104e802)" d="
M497.284 280.855
L497.087 274.666
L496.498 268.502
L495.52 262.387
L494.156 256.347
L492.411 250.406
L490.293 244.587
L487.811 238.914
L484.973 233.41
L481.792 228.097
L478.281 222.997
L474.453 218.13
L470.324 213.515
L465.911 209.171
L461.231 205.116
L456.304 201.366
L451.148 197.936
L445.786 194.84
L440.237 192.09
L434.526 189.697
L428.674 187.672
L422.706 186.022
L416.645 184.754
L410.516 183.873
L404.343 183.382
L398.151 183.284
L391.966 183.578
L385.812 184.265
L379.714 185.34
L373.696 186.8
L367.783 188.638
L361.999 190.848
L356.366 193.421
L350.908 196.345
L345.646 199.61
L340.602 203.202
L335.796 207.106
L331.247 211.308
L326.974 215.789
L322.993 220.533
L319.322 225.519
L315.974 230.729
L312.964 236.14
L310.302 241.731
L308.001 247.48
L306.068 253.363
L304.513 259.357
L303.341 265.437
L302.558 271.579
L302.165 277.759
L302.165 283.951
L302.558 290.131
L303.341 296.274
L304.513 302.354
L306.068 308.348
L308.001 314.231
L310.302 319.98
L312.964 325.571
L315.974 330.982
L319.322 336.191
L322.993 341.178
L326.974 345.921
L331.247 350.403
L335.796 354.604
L340.602 358.509
L345.646 362.101
L350.908 365.365
L356.366 368.29
L361.999 370.862
L367.783 373.072
L373.696 374.911
L379.714 376.371
L385.812 377.446
L391.966 378.132
L398.151 378.427
L404.343 378.329
L410.516 377.838
L416.645 376.957
L422.706 375.689
L428.674 374.038
L434.526 372.013
L440.237 369.621
L445.786 366.871
L451.148 363.775
L456.304 360.345
L461.231 356.595
L465.911 352.54
L470.324 348.196
L474.453 343.581
L478.281 338.714
L481.792 333.613
L484.973 328.3
L487.811 322.796
L490.293 317.124
L492.411 311.305
L494.156 305.363
L495.52 299.323
L496.498 293.209
L497.087 287.044
L497.284 280.855" style="fill:none;opacity:0.5;stroke:#4c72b0;stroke-linecap:round;stroke-width:2.8000000000000003;"/>
   </g>
   <g id="line2d_26">
    <path clip-path="url(#peb9104e802)" d="
M686.053 163.794
L685.643 150.87
L684.414 137.998
L682.371 125.23
L679.522 112.618
L675.879 100.211
L671.457 88.0608
L666.273 76.2152
L660.348 64.7222
L653.706 53.6282
L646.373 42.9778
L638.38 32.8139
L629.759 23.1773
L620.544 14.107
L610.771 5.63946
L602.047 -1
M362.591 -1
L358.88 1.64245
L348.844 9.79571
L339.346 18.5691
L330.423 27.9272
L322.111 37.8324
L314.445 48.2448
L307.454 59.1225
L301.167 70.4217
L295.61 82.0968
L290.804 94.1009
L286.769 106.386
L283.522 118.902
L281.075 131.598
L279.438 144.425
L278.618 157.329
L278.618 170.259
L279.438 183.164
L281.075 195.99
L283.522 208.686
L286.769 221.202
L290.804 233.487
L295.61 245.491
L301.167 257.166
L307.454 268.466
L314.445 279.343
L322.111 289.756
L330.423 299.661
L339.346 309.019
L348.844 317.792
L358.88 325.946
L369.413 333.446
L380.4 340.263
L391.797 346.37
L403.559 351.741
L415.638 356.356
L427.985 360.195
L440.551 363.244
L453.285 365.489
L466.136 366.922
L479.051 367.537
L491.98 367.332
L504.87 366.307
L517.669 364.467
L530.325 361.819
L542.788 358.373
L555.007 354.144
L566.933 349.149
L578.519 343.407
L589.717 336.942
L600.482 329.779
L610.771 321.949
L620.544 313.481
L629.759 304.411
L638.38 294.774
L646.373 284.61
L653.706 273.96
L660.348 262.866
L666.273 251.373
L671.457 239.527
L675.879 227.377
L679.522 214.97
L682.371 202.358
L684.414 189.59
L685.643 176.718
L686.053 163.794" style="fill:none;opacity:0.5;stroke:#55a868;stroke-linecap:round;stroke-width:2.8000000000000003;"/>
   </g>
   <g id="line2d_27">
    <path clip-path="url(#peb9104e802)" d="
M595.675 396.653
L595.391 387.724
L594.542 378.831
L593.131 370.01
L591.162 361.296
L588.646 352.724
L585.59 344.33
L582.009 336.146
L577.915 328.205
L573.326 320.54
L568.26 313.182
L562.738 306.16
L556.781 299.502
L550.415 293.236
L543.663 287.386
L536.554 281.975
L529.117 277.027
L521.38 272.56
L513.376 268.593
L505.136 265.142
L496.694 262.22
L488.083 259.839
L479.339 258.01
L470.497 256.738
L461.591 256.03
L452.659 255.889
L443.736 256.314
L434.857 257.304
L426.06 258.855
L417.378 260.961
L408.848 263.614
L400.502 266.802
L392.376 270.513
L384.502 274.732
L376.911 279.442
L369.634 284.624
L362.7 290.257
L356.138 296.318
L349.973 302.784
L344.231 309.627
L338.934 316.821
L334.104 324.336
L329.761 332.143
L325.921 340.209
L322.601 348.503
L319.814 356.99
L317.57 365.637
L315.879 374.409
L314.748 383.271
L314.182 392.186
L314.182 401.12
L314.748 410.035
L315.879 418.897
L317.57 427.669
L319.814 436.316
L322.601 444.803
L325.921 453.097
L329.761 461.163
L334.104 468.969
L338.934 476.485
L344.231 483.678
L349.973 490.522
L356.138 496.987
L362.7 503.049
L369.634 508.682
L376.911 513.864
L384.502 518.574
L392.376 522.793
L400.502 526.504
L408.848 529.692
L417.378 532.344
L426.06 534.451
L434.857 536.002
L443.736 536.992
L452.659 537.417
L461.591 537.275
L470.497 536.567
L479.339 535.296
L488.083 533.466
L496.694 531.086
L505.136 528.164
L513.376 524.713
L521.38 520.746
L529.117 516.279
L536.554 511.33
L543.663 505.92
L550.415 500.07
L556.781 493.803
L562.738 487.146
L568.26 480.124
L573.326 472.765
L577.915 465.101
L582.009 457.16
L585.59 448.976
L588.646 440.582
L591.162 432.01
L593.131 423.296
L594.542 414.475
L595.391 405.582
L595.675 396.653" style="fill:none;stroke:#c44e52;stroke-linecap:round;stroke-width:2.8000000000000003;"/>
   </g>
   <g id="patch_6">
    <path d="
M115.2 554.4
L829.44 554.4" style="fill:none;stroke:#262626;stroke-linecap:square;stroke-linejoin:miter;stroke-width:1.25;"/>
   </g>
   <g id="patch_7">
    <path d="
M115.2 554.4
L115.2 63.36" style="fill:none;stroke:#262626;stroke-linecap:square;stroke-linejoin:miter;stroke-width:1.25;"/>
   </g>
   <g id="patch_8">
    <path d="
M829.44 554.4
L829.44 63.36" style="fill:none;stroke:#262626;stroke-linecap:square;stroke-linejoin:miter;stroke-width:1.25;"/>
   </g>
   <g id="patch_9">
    <path d="
M115.2 63.36
L829.44 63.36" style="fill:none;stroke:#262626;stroke-linecap:square;stroke-linejoin:miter;stroke-width:1.25;"/>
   </g>
   <g id="text_13">
    <!-- core distance -->
    <defs>
     <path d="
M46.3906 14.5938
Q46.3906 10.8906 44.9375 7.98438
Q43.5 5.07812 40.7656 3.09375
Q38.0312 1.125 34.0469 0.0625
Q30.0781 -0.984375 24.9531 -0.984375
Q20.3594 -0.984375 16.6719 -0.265625
Q12.9844 0.4375 10.2031 2
Q7.42188 3.5625 5.53125 6.125
Q3.65625 8.6875 2.78125 12.4062
L10.5469 13.9219
Q11.6719 9.67188 15.1875 7.6875
Q18.7031 5.71875 24.9531 5.71875
Q27.7812 5.71875 30.1406 6.10938
Q32.5156 6.5 34.2188 7.45312
Q35.9375 8.40625 36.8906 9.98438
Q37.8438 11.5781 37.8438 13.9219
Q37.8438 16.3125 36.7188 17.8438
Q35.5938 19.3906 33.5938 20.4062
Q31.5938 21.4375 28.7344 22.1875
Q25.875 22.9531 22.4688 23.875
Q19.2812 24.7031 16.1562 25.7344
Q13.0312 26.7656 10.5156 28.4375
Q8.01562 30.125 6.45312 32.6094
Q4.89062 35.1094 4.89062 38.875
Q4.89062 46.0938 10.0312 49.875
Q15.1875 53.6562 25.0469 53.6562
Q33.7969 53.6562 38.9375 50.5781
Q44.0938 47.5156 45.4531 40.7188
L37.5469 39.75
Q37.1094 41.7969 35.9375 43.1875
Q34.7656 44.5781 33.1094 45.4375
Q31.4531 46.2969 29.375 46.6562
Q27.2969 47.0156 25.0469 47.0156
Q19.0938 47.0156 16.25 45.2031
Q13.4219 43.4062 13.4219 39.75
Q13.4219 37.5938 14.4688 36.2031
Q15.5312 34.8125 17.4062 33.8594
Q19.2812 32.9062 21.9219 32.2031
Q24.5625 31.5 27.7344 30.7188
Q29.8281 30.1719 32.0312 29.5625
Q34.2344 28.9531 36.2969 28.0938
Q38.375 27.25 40.2031 26.0938
Q42.0469 24.9531 43.4062 23.3438
Q44.7812 21.7344 45.5781 19.5781
Q46.3906 17.4375 46.3906 14.5938" id="LiberationSans-73"/>
     <path d="
M51.4219 26.4688
Q51.4219 12.5938 45.3125 5.79688
Q39.2031 -0.984375 27.5938 -0.984375
Q22.0781 -0.984375 17.7188 0.671875
Q13.375 2.34375 10.375 5.76562
Q7.375 9.1875 5.78125 14.3281
Q4.20312 19.4844 4.20312 26.4688
Q4.20312 53.8125 27.875 53.8125
Q34.0312 53.8125 38.5 52.0938
Q42.9688 50.3906 45.8281 46.9688
Q48.6875 43.5625 50.0469 38.4219
Q51.4219 33.2969 51.4219 26.4688
M42.1875 26.4688
Q42.1875 32.625 41.2344 36.625
Q40.2812 40.625 38.4531 43.0156
Q36.625 45.4062 33.9844 46.3594
Q31.3438 47.3125 28.0312 47.3125
Q24.6562 47.3125 21.9375 46.3125
Q19.2344 45.3125 17.3281 42.8906
Q15.4375 40.4844 14.4219 36.4688
Q13.4219 32.4688 13.4219 26.4688
Q13.4219 20.3125 14.5 16.2812
Q15.5781 12.25 17.4531 9.85938
Q19.3438 7.46875 21.9062 6.48438
Q24.4688 5.51562 27.4844 5.51562
Q30.8594 5.51562 33.5938 6.46875
Q36.3281 7.42188 38.2344 9.8125
Q40.1406 12.2031 41.1562 16.25
Q42.1875 20.3125 42.1875 26.4688" id="LiberationSans-6f"/>
     <path d="
M6.6875 64.0625
L6.6875 72.4688
L15.4844 72.4688
L15.4844 64.0625
z

M6.6875 0
L6.6875 52.8281
L15.4844 52.8281
L15.4844 0
z
" id="LiberationSans-69"/>
     <path d="
M40.0938 8.5
Q37.6406 3.42188 33.6094 1.21875
Q29.5938 -0.984375 23.6406 -0.984375
Q13.625 -0.984375 8.90625 5.75
Q4.20312 12.5 4.20312 26.1719
Q4.20312 53.8125 23.6406 53.8125
Q29.6406 53.8125 33.6406 51.6094
Q37.6406 49.4219 40.0938 44.625
L40.1875 44.625
Q40.1875 45.125 40.1562 46.1719
Q40.1406 47.2188 40.1094 48.3594
Q40.0938 49.5156 40.0938 50.5312
Q40.0938 51.5625 40.0938 52
L40.0938 72.4688
L48.875 72.4688
L48.875 10.8906
Q48.875 8.98438 48.8906 7.21875
Q48.9219 5.46875 48.9688 4
Q49.0312 2.54688 49.0781 1.48438
Q49.125 0.4375 49.1719 0
L40.7656 0
Q40.6719 0.484375 40.5938 1.39062
Q40.5312 2.29688 40.4531 3.46875
Q40.375 4.64062 40.3281 5.9375
Q40.2812 7.23438 40.2812 8.5
z

M13.4219 26.4688
Q13.4219 21 14.1094 17.0938
Q14.7969 13.1875 16.3125 10.6719
Q17.8281 8.15625 20.1719 6.98438
Q22.5156 5.8125 25.875 5.8125
Q29.3438 5.8125 32 6.9375
Q34.6719 8.0625 36.4531 10.5781
Q38.2344 13.0938 39.1562 17.1406
Q40.0938 21.1875 40.0938 27.0469
Q40.0938 32.6719 39.1562 36.5469
Q38.2344 40.4375 36.4219 42.8281
Q34.625 45.2188 32 46.2656
Q29.3906 47.3125 25.9844 47.3125
Q22.75 47.3125 20.4062 46.1875
Q18.0625 45.0625 16.5 42.5781
Q14.9375 40.0938 14.1719 36.1094
Q13.4219 32.125 13.4219 26.4688" id="LiberationSans-64"/>
     <path d="
M13.4844 24.5625
Q13.4844 20.4062 14.3281 16.9062
Q15.1875 13.4219 16.9688 10.9062
Q18.75 8.40625 21.5312 7
Q24.3125 5.60938 28.2188 5.60938
Q33.9375 5.60938 37.375 7.90625
Q40.8281 10.2031 42.0469 13.7188
L49.75 11.5312
Q48.9219 9.32812 47.4375 7.10938
Q45.9531 4.89062 43.4531 3.09375
Q40.9688 1.3125 37.2344 0.15625
Q33.5 -0.984375 28.2188 -0.984375
Q16.5 -0.984375 10.375 6
Q4.25 12.9844 4.25 26.7656
Q4.25 34.1875 6.09375 39.3281
Q7.95312 44.4844 11.1719 47.7031
Q14.4062 50.9219 18.7031 52.3594
Q23 53.8125 27.875 53.8125
Q34.5156 53.8125 38.9844 51.6562
Q43.4531 49.5156 46.1562 45.7188
Q48.875 41.9375 50.0156 36.8125
Q51.1719 31.6875 51.1719 25.7344
L51.1719 24.5625
z

M42.0938 31.2969
Q41.3594 39.6562 37.8438 43.4844
Q34.3281 47.3125 27.7344 47.3125
Q25.5312 47.3125 23.1094 46.6094
Q20.7031 45.9062 18.6562 44.0938
Q16.6094 42.2812 15.1875 39.1719
Q13.7656 36.0781 13.5781 31.2969
z
" id="LiberationSans-65"/>
     <path id="LiberationSans-20"/>
     <path d="
M6.9375 0
L6.9375 40.5312
Q6.9375 42.1875 6.90625 43.9219
Q6.89062 45.6562 6.82812 47.2656
Q6.78125 48.875 6.73438 50.2812
Q6.6875 51.7031 6.64062 52.8281
L14.9375 52.8281
Q14.9844 51.7031 15.0625 50.2656
Q15.1406 48.8281 15.2031 47.3125
Q15.2812 45.7969 15.2969 44.4062
Q15.3281 43.0156 15.3281 42.0469
L15.5312 42.0469
Q16.4531 45.0625 17.5 47.2812
Q18.5625 49.5156 19.9688 50.9531
Q21.3906 52.3906 23.3438 53.0938
Q25.2969 53.8125 28.0781 53.8125
Q29.1562 53.8125 30.125 53.6406
Q31.1094 53.4688 31.6406 53.3281
L31.6406 45.2656
Q30.7656 45.5156 29.5938 45.625
Q28.4219 45.75 26.9531 45.75
Q23.9219 45.75 21.7969 44.375
Q19.6719 43.0156 18.3281 40.5938
Q17 38.1875 16.3594 34.8438
Q15.7188 31.5 15.7188 27.5469
L15.7188 0
z
" id="LiberationSans-72"/>
     <path d="
M27.0469 0.390625
Q25.0469 -0.140625 22.9688 -0.453125
Q20.9062 -0.78125 18.1719 -0.78125
Q7.625 -0.78125 7.625 11.1875
L7.625 46.4375
L1.51562 46.4375
L1.51562 52.8281
L7.95312 52.8281
L10.5469 64.6562
L16.4062 64.6562
L16.4062 52.8281
L26.1719 52.8281
L26.1719 46.4375
L16.4062 46.4375
L16.4062 13.0938
Q16.4062 9.28125 17.6406 7.73438
Q18.8906 6.20312 21.9688 6.20312
Q23.25 6.20312 24.4375 6.39062
Q25.6406 6.59375 27.0469 6.89062
z
" id="LiberationSans-74"/>
     <path d="
M20.2188 -0.984375
Q12.25 -0.984375 8.25 3.21875
Q4.25 7.42188 4.25 14.75
Q4.25 19.9688 6.21875 23.3125
Q8.20312 26.6562 11.3906 28.5625
Q14.5938 30.4688 18.6875 31.2031
Q22.7969 31.9375 27.0469 32.0312
L38.9219 32.2344
L38.9219 35.1094
Q38.9219 38.375 38.2344 40.6719
Q37.5469 42.9688 36.125 44.375
Q34.7188 45.7969 32.5938 46.4531
Q30.4688 47.125 27.5938 47.125
Q25.0469 47.125 23 46.75
Q20.9531 46.3906 19.4375 45.4375
Q17.9219 44.4844 16.9844 42.8438
Q16.0625 41.2188 15.7656 38.7188
L6.59375 39.5469
Q7.07812 42.6719 8.4375 45.2812
Q9.8125 47.9062 12.3281 49.7969
Q14.8438 51.7031 18.625 52.75
Q22.4062 53.8125 27.7812 53.8125
Q37.75 53.8125 42.7656 49.2344
Q47.7969 44.6719 47.7969 36.0312
L47.7969 13.2812
Q47.7969 9.375 48.8281 7.39062
Q49.8594 5.42188 52.7344 5.42188
Q53.4688 5.42188 54.2031 5.51562
Q54.9375 5.60938 55.6094 5.76562
L55.6094 0.296875
Q53.9531 -0.09375 52.3125 -0.28125
Q50.6875 -0.484375 48.8281 -0.484375
Q46.3438 -0.484375 44.5625 0.171875
Q42.7812 0.828125 41.6562 2.17188
Q40.5312 3.51562 39.9375 5.48438
Q39.3594 7.46875 39.2031 10.1094
L38.9219 10.1094
Q37.5 7.5625 35.8125 5.51562
Q34.125 3.46875 31.875 2.03125
Q29.6406 0.59375 26.7812 -0.1875
Q23.9219 -0.984375 20.2188 -0.984375
M22.2188 5.60938
Q26.4219 5.60938 29.5625 7.14062
Q32.7188 8.6875 34.7812 11.0781
Q36.8594 13.4844 37.8906 16.3125
Q38.9219 19.1406 38.9219 21.7344
L38.9219 26.0781
L29.2969 25.875
Q26.0781 25.8281 23.1719 25.4062
Q20.2656 25 18.0625 23.7812
Q15.875 22.5625 14.5781 20.3594
Q13.2812 18.1719 13.2812 14.5938
Q13.2812 10.2969 15.5938 7.95312
Q17.9219 5.60938 22.2188 5.60938" id="LiberationSans-61"/>
     <path d="
M40.2812 0
L40.2812 33.5
Q40.2812 37.3594 39.7188 39.9375
Q39.1562 42.5312 37.8906 44.1094
Q36.625 45.7031 34.5469 46.3594
Q32.4688 47.0156 29.3906 47.0156
Q26.2656 47.0156 23.75 45.9219
Q21.2344 44.8281 19.4531 42.75
Q17.6719 40.6719 16.6875 37.625
Q15.7188 34.5781 15.7188 30.6094
L15.7188 0
L6.9375 0
L6.9375 41.5469
Q6.9375 43.2188 6.90625 45.0469
Q6.89062 46.875 6.82812 48.5
Q6.78125 50.1406 6.73438 51.3125
Q6.6875 52.4844 6.64062 52.8281
L14.9375 52.8281
Q14.9844 52.5938 15.0312 51.5156
Q15.0938 50.4375 15.1562 49.0469
Q15.2344 47.6562 15.2812 46.2188
Q15.3281 44.7812 15.3281 43.7969
L15.4844 43.7969
Q16.75 46.0938 18.2656 47.9531
Q19.7812 49.8125 21.7812 51.0938
Q23.7812 52.3906 26.3594 53.0938
Q28.9531 53.8125 32.375 53.8125
Q36.7656 53.8125 39.9375 52.7344
Q43.1094 51.6562 45.1562 49.4062
Q47.2188 47.1719 48.1719 43.625
Q49.125 40.0938 49.125 35.2031
L49.125 0
z
" id="LiberationSans-6e"/>
     <path d="
M13.4219 26.6562
Q13.4219 22.125 14.0781 18.3125
Q14.75 14.5 16.3125 11.7344
Q17.875 8.98438 20.4375 7.46875
Q23 5.95312 26.7656 5.95312
Q31.4531 5.95312 34.5938 8.48438
Q37.75 11.0312 38.4844 16.3125
L47.3594 15.7188
Q46.9219 12.4531 45.4531 9.42188
Q44 6.39062 41.4844 4.09375
Q38.9688 1.8125 35.3438 0.40625
Q31.7344 -0.984375 27 -0.984375
Q20.7969 -0.984375 16.4531 1.10938
Q12.1094 3.21875 9.39062 6.90625
Q6.6875 10.5938 5.46875 15.5938
Q4.25 20.6094 4.25 26.4688
Q4.25 31.7812 5.125 35.8594
Q6 39.9375 7.59375 42.9844
Q9.1875 46.0469 11.3281 48.125
Q13.4844 50.2031 15.9844 51.4375
Q18.5 52.6875 21.2812 53.25
Q24.0781 53.8125 26.9062 53.8125
Q31.3438 53.8125 34.8125 52.5938
Q38.2812 51.375 40.7969 49.25
Q43.3125 47.125 44.875 44.2344
Q46.4375 41.3594 47.0781 38.0312
L38.0312 37.3594
Q37.3594 41.75 34.5625 44.3281
Q31.7812 46.9219 26.6562 46.9219
Q22.9062 46.9219 20.3906 45.6719
Q17.875 44.4375 16.3125 41.9219
Q14.75 39.4062 14.0781 35.5938
Q13.4219 31.7812 13.4219 26.6562" id="LiberationSans-63"/>
    </defs>
    <g style="fill:#4c72b0;" transform="translate(415.703149378 276.894027439)scale(0.1 -0.1)">
     <use xlink:href="#LiberationSans-63"/>
     <use x="50.0" xlink:href="#LiberationSans-6f"/>
     <use x="105.615234375" xlink:href="#LiberationSans-72"/>
     <use x="138.916015625" xlink:href="#LiberationSans-65"/>
     <use x="194.53125" xlink:href="#LiberationSans-20"/>
     <use x="222.314453125" xlink:href="#LiberationSans-64"/>
     <use x="277.9296875" xlink:href="#LiberationSans-69"/>
     <use x="300.146484375" xlink:href="#LiberationSans-73"/>
     <use x="350.146484375" xlink:href="#LiberationSans-74"/>
     <use x="377.9296875" xlink:href="#LiberationSans-61"/>
     <use x="433.544921875" xlink:href="#LiberationSans-6e"/>
     <use x="489.16015625" xlink:href="#LiberationSans-63"/>
     <use x="539.16015625" xlink:href="#LiberationSans-65"/>
    </g>
   </g>
   <g id="text_14">
    <!-- core distance -->
    <g style="fill:#55a868;" transform="translate(551.380442164 159.832770534)scale(0.1 -0.1)">
     <use xlink:href="#LiberationSans-63"/>
     <use x="50.0" xlink:href="#LiberationSans-6f"/>
     <use x="105.615234375" xlink:href="#LiberationSans-72"/>
     <use x="138.916015625" xlink:href="#LiberationSans-65"/>
     <use x="194.53125" xlink:href="#LiberationSans-20"/>
     <use x="222.314453125" xlink:href="#LiberationSans-64"/>
     <use x="277.9296875" xlink:href="#LiberationSans-69"/>
     <use x="300.146484375" xlink:href="#LiberationSans-73"/>
     <use x="350.146484375" xlink:href="#LiberationSans-74"/>
     <use x="377.9296875" xlink:href="#LiberationSans-61"/>
     <use x="433.544921875" xlink:href="#LiberationSans-6e"/>
     <use x="489.16015625" xlink:href="#LiberationSans-63"/>
     <use x="539.16015625" xlink:href="#LiberationSans-65"/>
    </g>
   </g>
   <g id="text_15">
    <!-- core distance -->
    <g style="fill:#c44e52;" transform="translate(492.49531011 392.691616975)scale(0.1 -0.1)">
     <use xlink:href="#LiberationSans-63"/>
     <use x="50.0" xlink:href="#LiberationSans-6f"/>
     <use x="105.615234375" xlink:href="#LiberationSans-72"/>
     <use x="138.916015625" xlink:href="#LiberationSans-65"/>
     <use x="194.53125" xlink:href="#LiberationSans-20"/>
     <use x="222.314453125" xlink:href="#LiberationSans-64"/>
     <use x="277.9296875" xlink:href="#LiberationSans-69"/>
     <use x="300.146484375" xlink:href="#LiberationSans-73"/>
     <use x="350.146484375" xlink:href="#LiberationSans-74"/>
     <use x="377.9296875" xlink:href="#LiberationSans-61"/>
     <use x="433.544921875" xlink:href="#LiberationSans-6e"/>
     <use x="489.16015625" xlink:href="#LiberationSans-63"/>
     <use x="539.16015625" xlink:href="#LiberationSans-65"/>
    </g>
   </g>
  </g>
 </g>
 <defs>
  <clipPath id="peb9104e802">
   <rect height="491.04" width="714.24" x="115.2" y="63.36"/>
  </clipPath>
 </defs>
</svg>
